<mxfile host="65bd71144e">
    <diagram id="f1B3SK5CAayh3abRBu_V" name="Page-1">
        <mxGraphModel dx="2397" dy="473" grid="1" gridSize="10" guides="1" tooltips="1" connect="1" arrows="1" fold="1" page="1" pageScale="1" pageWidth="850" pageHeight="1100" math="0" shadow="0">
            <root>
                <mxCell id="0"/>
                <mxCell id="1" parent="0"/>
                <mxCell id="2" value="VGA Signal Generator" style="rounded=0;whiteSpace=wrap;html=1;" vertex="1" parent="1">
                    <mxGeometry x="720" y="20" width="120" height="60" as="geometry"/>
                </mxCell>
                <mxCell id="3" value="Sprit Block 0" style="rounded=0;whiteSpace=wrap;html=1;" vertex="1" parent="1">
                    <mxGeometry x="250" y="40" width="70" height="60" as="geometry"/>
                </mxCell>
                <mxCell id="5" value="Background 0" style="rounded=0;whiteSpace=wrap;html=1;" vertex="1" parent="1">
                    <mxGeometry x="200" y="240" width="120" height="60" as="geometry"/>
                </mxCell>
                <mxCell id="6" value="Background 1" style="rounded=0;whiteSpace=wrap;html=1;" vertex="1" parent="1">
                    <mxGeometry x="200" y="320" width="120" height="60" as="geometry"/>
                </mxCell>
                <mxCell id="7" value="Sprit Block N" style="rounded=0;whiteSpace=wrap;html=1;" vertex="1" parent="1">
                    <mxGeometry x="250" y="120" width="70" height="60" as="geometry"/>
                </mxCell>
                <mxCell id="8" value="Sprit Depth Sorter" style="rounded=0;whiteSpace=wrap;html=1;" vertex="1" parent="1">
                    <mxGeometry x="360" y="80" width="70" height="60" as="geometry"/>
                </mxCell>
                <mxCell id="9" value="Sprite Color Lookup" style="rounded=0;whiteSpace=wrap;html=1;" vertex="1" parent="1">
                    <mxGeometry x="460" y="80" width="70" height="60" as="geometry"/>
                </mxCell>
                <mxCell id="10" value="Layer Combiner" style="rounded=0;whiteSpace=wrap;html=1;" vertex="1" parent="1">
                    <mxGeometry x="560" y="160" width="70" height="60" as="geometry"/>
                </mxCell>
                <mxCell id="11" value="Background 0 Color Lookup" style="rounded=0;whiteSpace=wrap;html=1;" vertex="1" parent="1">
                    <mxGeometry x="360" y="240" width="70" height="60" as="geometry"/>
                </mxCell>
                <mxCell id="12" value="Background 1 Color Lookup" style="rounded=0;whiteSpace=wrap;html=1;" vertex="1" parent="1">
                    <mxGeometry x="360" y="320" width="70" height="60" as="geometry"/>
                </mxCell>
                <mxCell id="13" value="Color Transform" style="rounded=0;whiteSpace=wrap;html=1;" vertex="1" parent="1">
                    <mxGeometry x="660" y="160" width="70" height="60" as="geometry"/>
                </mxCell>
                <mxCell id="14" value="Sprite Row Fetcher" style="rounded=0;whiteSpace=wrap;html=1;" vertex="1" parent="1">
                    <mxGeometry x="80" y="80" width="70" height="60" as="geometry"/>
                </mxCell>
                <mxCell id="15" value="Background Row Fetcher" style="rounded=0;whiteSpace=wrap;html=1;" vertex="1" parent="1">
                    <mxGeometry x="80" y="280" width="70" height="60" as="geometry"/>
                </mxCell>
                <mxCell id="16" value="" style="rounded=0;whiteSpace=wrap;html=1;" vertex="1" parent="1">
                    <mxGeometry x="-120" y="240" width="120" height="60" as="geometry"/>
                </mxCell>
            </root>
        </mxGraphModel>
    </diagram>
</mxfile>